Coordinates
version=1
nRows=54
nColumns=12
inDegrees=yes

Units are S.I. units (second, meters, Newtons, ...)
Angles are in degrees

endheader
time	SC_y	SC_z	SC_x	AC_y	AC_z	AC_x	GH_y	GH_z	GH_yy	EL_x	PS_y
       0.0              -21.15          15.45          32.92          45.14         -19.12         -2.486         -112.0          34.18         -153.9          10.43          69.42
  0.001574              -21.16          15.46          32.92          45.14         -19.11         -2.489         -112.0          34.19         -153.8          10.45          69.42
  0.003148              -21.16          15.46          32.91          45.14         -19.11         -2.491         -112.0          34.19         -153.8          10.47          69.42
  0.004722              -21.17          15.46          32.91          45.14         -19.11         -2.494         -112.0           34.2         -153.7          10.48          69.42
  0.006297              -21.17          15.47           32.9          45.14         -19.11         -2.497         -111.9           34.2         -153.7           10.5          69.43
  0.007871              -21.18          15.47          32.89          45.14         -19.11           -2.5         -111.9          34.21         -153.6          10.53          69.43
  0.009445              -21.18          15.48          32.89          45.14          -19.1         -2.503         -111.9          34.22         -153.6          10.55          69.43
   0.01102              -21.19          15.48          32.88          45.14          -19.1         -2.506         -111.9          34.23         -153.5          10.57          69.44
   0.01259               -21.2          15.49          32.87          45.14          -19.1          -2.51         -111.8          34.24         -153.4           10.6          69.44
   0.01417              -21.21          15.49          32.87          45.14          -19.1         -2.514         -111.8          34.24         -153.4          10.63          69.44
   0.01574              -21.21           15.5          32.86          45.14         -19.09         -2.518         -111.8          34.25         -153.3          10.66          69.45
   0.01732              -21.22          15.51          32.85          45.14         -19.09         -2.523         -111.7          34.26         -153.2          10.69          69.45
   0.01889              -21.23          15.51          32.84          45.14         -19.09         -2.528         -111.7          34.27         -153.1          10.72          69.46
   0.02046              -21.24          15.52          32.83          45.14         -19.08         -2.533         -111.7          34.29         -153.0          10.76          69.46
   0.02204              -21.25          15.53          32.82          45.14         -19.08         -2.539         -111.6           34.3         -152.9           10.8          69.47
   0.02361              -21.26          15.54          32.81          45.14         -19.08         -2.545         -111.6          34.31         -152.8          10.85          69.47
   0.02519              -21.28          15.55           32.8          45.14         -19.07         -2.552         -111.5          34.33         -152.7          10.89          69.48
   0.02676              -21.29          15.56          32.78          45.14         -19.07          -2.56         -111.5          34.35         -152.5          10.95          69.49
   0.02833               -21.3          15.57          32.77          45.14         -19.06         -2.568         -111.4          34.36         -152.4           11.0          69.49
   0.02991              -21.32          15.58          32.75          45.14         -19.06         -2.577         -111.3          34.38         -152.2          11.07           69.5
   0.03148              -21.34          15.59          32.73          45.14         -19.05         -2.587         -111.3          34.41         -152.1          11.13          69.51
   0.03306              -21.36          15.61          32.71          45.14         -19.04         -2.597         -111.2          34.43         -151.9          11.21          69.52
   0.03463              -21.38          15.63          32.69          45.14         -19.04         -2.609         -111.1          34.46         -151.6          11.29          69.53
   0.03621               -21.4          15.64          32.66          45.14         -19.03         -2.622         -111.0          34.49         -151.4          11.39          69.55
   0.03778              -21.43          15.66          32.64          45.14         -19.02         -2.637         -110.9          34.52         -151.1          11.49          69.56
   0.03935              -21.46          15.69          32.61          45.14         -19.01         -2.653         -110.8          34.56         -150.8           11.6          69.58
   0.04093              -21.49          15.71          32.57          45.14         -18.99         -2.672         -110.6           34.6         -150.5          11.73          69.59
    0.0425              -21.53          15.74          32.53          45.14         -18.98         -2.692         -110.5          34.64         -150.1          11.88          69.61
   0.04408              -21.57          15.77          32.49          45.14         -18.97         -2.716         -110.3          34.69         -149.7          12.04          69.63
   0.04565              -21.62          15.81          32.44          45.14         -18.95         -2.742         -110.1          34.75         -149.2          12.23          69.66
   0.04722              -21.68          15.85          32.38          45.14         -18.93         -2.772         -109.9          34.82         -148.7          12.44          69.69
    0.0488              -21.74           15.9          32.32          45.14         -18.91         -2.807         -109.6           34.9         -148.1          12.68          69.72
   0.05037              -21.81          15.96          32.24          45.14         -18.88         -2.847         -109.3          34.99         -147.3          12.96          69.76
   0.05195               -21.9          16.02          32.16          45.14         -18.85         -2.893         -108.9          35.09         -146.5          13.29           69.8
   0.05352               -22.0           16.1          32.05          45.14         -18.82         -2.948         -108.5          35.21         -145.5          13.67          69.85
    0.0551              -22.12          16.18          31.93          45.14         -18.77         -3.012         -108.0          35.36         -144.3          14.12          69.92
   0.05667              -22.26          16.29          31.79          45.14         -18.72         -3.088         -107.5          35.53         -142.9          14.65          69.99
   0.05824              -22.42          16.42          31.62          45.14         -18.67         -3.179         -106.8          35.73         -141.3          15.29          70.07
   0.05982              -22.63          16.57          31.41          45.14         -18.59          -3.29         -105.9          35.98         -139.3          16.07          70.18
   0.06139              -22.87          16.76          31.16          45.14         -18.51         -3.424         -104.9          36.28         -136.8          17.01          70.31
   0.06297              -23.18          16.99          30.85          45.14          -18.4         -3.591         -103.6          36.65         -133.8          18.18          70.47
   0.06454              -23.56          17.28          30.46          45.14         -18.26         -3.799         -102.1          37.11         -130.0          19.64          70.66
   0.06611              -24.04          17.64          29.97          45.14         -18.09          -4.06         -100.1           37.7         -125.3          21.47          70.91
   0.06769              -24.65           18.1          29.34          45.14         -17.88         -4.393         -97.57          38.44         -119.3           23.8          71.23
   0.06926              -25.43           18.7          28.55          45.14          -17.6         -4.818         -94.34          39.39         -111.5          26.79          71.63
   0.07084              -26.43          19.45          27.52          45.14         -17.25         -5.364          -90.2          40.61         -101.6          30.62          72.15
   0.07241              -27.71          20.42          26.21          45.14         -16.79         -6.062         -84.91          42.17         -88.93          35.51          72.81
   0.07399              -29.32          21.64          24.57          45.14         -16.22         -6.939         -78.26          44.13          -73.0          41.66          73.64
   0.07556              -31.28          23.13          22.57          45.13         -15.53         -8.007         -70.16          46.52         -53.59          49.16          74.65
   0.07713              -33.55          24.85          20.24          45.13         -14.73         -9.246         -60.76          49.29         -31.09          57.85          75.83
   0.07871              -36.01          26.72          17.73          45.13         -13.85         -10.59         -50.59          52.29         -6.723          67.26           77.1
   0.08028              -38.46          28.58          15.21          45.13         -12.98         -11.93         -40.42          55.29          17.64          76.67          78.37
   0.08186              -40.74           30.3          12.89          45.13         -12.18         -13.17         -31.03          58.05          40.15          85.36          79.55
   0.08343              -42.69          31.79          10.88          45.13         -11.48         -14.24         -22.93          60.44          59.56          92.85          80.56
